# xmcd
#
# Track frame offsets:
#	150
#	11055
#	22442
#	31800
#	44625
#	53685
#	62032
#	72867
#	84367
#	95495
#
# Disc length: 1453 seconds
#
# Revision: 1
# Processed by: cddbd v1.5PL3 Copyright (c) Steve Scherf et al.
# Submitted via: audiograbber 1.83.01
#
DISCID=8305ab0a
DTITLE=Willie Nelson - Classic Country
DYEAR=1997
DGENRE=Country
TTITLE0=Blame It On The Times
TTITLE1=I'm Going To Lose A Lot Of Teardrops
TTITLE2=One Step Beyond
TTITLE3=I Just Don't Understand
TTITLE4=Waiting Time
TTITLE5=You Wouldn't Cross The Street To Say Goodbye
TTITLE6=I Feel Sorry For Him
TTITLE7=Suffering In Silence
TTITLE8=Go Away
TTITLE9=You'll Always Have Someone
EXTD=
EXTT0=
EXTT1=
EXTT2=
EXTT3=
EXTT4=
EXTT5=
EXTT6=
EXTT7=
EXTT8=
EXTT9=
PLAYORDER=
